:SAMPLES-PER-SECOND 30
:FULLY-SPECIFIED
:DEGREES
214
root  -20.0918 38.9066 -1.41228 -49.2312 -88.6623 43.2463
RightUpLeg  14.2767 -9.16827 -5.03499
RightLeg  12.5454 7.80865 0.66965
RightFoot  -19.7442 -0.217366 -1.14423
RightToes  -2.9104e-010 0 -3.6325e-017
Spine  2.72839 2.41632 9.86532
Spine1  4.53245 5.3107 -11.7883
HEad  -12.5958 -20.4074 1.23973
LeftShoulder1  0.178729 3.01764 -30.6367
LeftArm  -4.21476 14.6013 -37.3922
LeftForeArm  30.4069 -10.5195 -7.38226
LeftHand  -0.0718022 7.29115 -1.9268
RightShoulder  -0.628013 -5.35788 27.1676
RightArm  7.49721 28.0433 68.9289
RightForeArm  154.031 73.3376 145.334
RightHand  -2.22104 16.0994 -12.3457
LeftUpLeg  -16.6665 3.3223 0.376331
LeftLeg  4.23535 0.874578 -0.64636
LeftFoot  3.3141 0.362497 -2.96537
LeftToes  -3.37426e-010 -1.91496e-010 5.23909e-011
215
root  -21.4336 38.5703 -1.15354 -59.2386 -88.0032 53.013
RightUpLeg  16.235 -8.26159 -6.16189
RightLeg  13.908 7.04466 0.41021
RightFoot  -22.1997 -0.151281 -0.0143704
RightToes  -2.9104e-010 0 -3.6325e-017
Spine  3.00757 2.9774 9.15663
Spine1  4.93303 6.06166 -12.2248
HEad  -12.9177 -23.5901 4.02855
LeftShoulder1  0.193931 2.98339 -31.1706
LeftArm  -5.19506 13.4553 -36.0233
LeftForeArm  33.6806 -6.64892 -7.88237
LeftHand  -0.0921926 7.04745 -3.42278
RightShoulder  -0.626947 -5.30289 28.1183
RightArm  13.8568 26.8037 71.8961
RightForeArm  150.248 74.3833 142.308
RightHand  -2.19192 15.9053 -12.3118
LeftUpLeg  -18.1864 3.2071 -1.20792
LeftLeg  10.7156 0.758029 0.130979
LeftFoot  6.19631 0.0200671 -0.522768
LeftToes  -3.37426e-010 -1.91496e-010 5.23909e-011
216
root  -22.7764 38.3541 -0.855182 -84.3752 -87.1427 77.5633
RightUpLeg  17.9556 -4.58834 -7.00982
RightLeg  15.9325 4.42852 0.0961607
RightFoot  -23.5099 0.139689 2.74908
RightToes  -2.9104e-010 0 -3.6325e-017
Spine  3.93621 3.63508 8.1665
Spine1  4.88709 6.99949 -13.306
HEad  -13.4945 -27.131 7.79265
LeftShoulder1  0.155663 3.0919 -31.5371
LeftArm  -5.25387 13.0307 -35.0353
LeftForeArm  35.4466 -4.39564 -7.76554
LeftHand  -0.131123 8.20757 -3.36187
RightShoulder  -0.527828 -5.02361 27.9721
RightArm  21.6351 27.5274 75.3399
RightForeArm  151.594 74.7811 141.548
RightHand  -1.99603 15.4897 -11.4401
LeftUpLeg  -18.4605 3.4239 -3.11396
LeftLeg  15.914 1.62961 0.747012
LeftFoot  8.14219 -0.75098 4.18986
LeftToes  -3.37426e-010 -1.91496e-010 5.23909e-011
217
root  -24.0908 38.1904 -0.531365 -93.6674 -85.713 86.0343
RightUpLeg  18.152 0.295252 -7.77916
RightLeg  21.3891 0.676448 0.205671
RightFoot  -23.7129 0.680454 7.84919
RightToes  -2.9104e-010 0 -3.6325e-017
Spine  5.23869 4.03321 5.8025
Spine1  4.32405 7.14631 -12.7165
HEad  -13.6459 -31.2 11.928
LeftShoulder1  0.112284 3.20979 -32.8829
LeftArm  -5.18374 12.9642 -33.6311
LeftForeArm  34.9373 -3.10368 -7.70249
LeftHand  -0.142342 8.9915 -2.82863
RightShoulder  -0.403333 -4.66052 27.7275
RightArm  30.1407 30.1727 78.8157
RightForeArm  157.516 75.0497 141.964
RightHand  -0.932092 16.3184 -5.43045
LeftUpLeg  -18.147 2.9744 -5.06841
LeftLeg  21.3476 2.72128 1.49774
LeftFoot  4.13549 -0.807515 5.7316
LeftToes  -3.37426e-010 -1.91496e-010 5.23909e-011
218
root  -25.2473 38.2072 -0.21748 -99.4353 -84.6096 91.9475
RightUpLeg  14.9686 0.92288 -9.71722
RightLeg  30.1525 0.960009 0.379886
RightFoot  -20.1931 0.915623 14.066
RightToes  -2.9104e-010 0 -3.6325e-017
Spine  5.30012 4.0267 3.43734
Spine1  4.59918 6.62013 -11.9141
HEad  -14.0023 -34.0044 15.0758
LeftShoulder1  -0.153056 3.8785 -35.0533
LeftArm  -4.50988 12.2572 -32.0607
LeftForeArm  33.4323 -2.24342 -8.01556
LeftHand  -0.147788 9.67928 -2.47249
RightShoulder  0.156743 -2.94589 24.8018
RightArm  38.4483 32.9459 83.9036
RightForeArm  161.172 75.1309 142.436
RightHand  -0.986194 16.8533 -5.58421
LeftUpLeg  -17.2824 5.49927 -6.68221
LeftLeg  23.3146 1.33944 0.975926
LeftFoot  1.07905 -0.681755 6.18325
LeftToes  -3.37426e-010 -1.91496e-010 5.23909e-011
219
root  -26.3561 38.3607 0.1264 -103.792 -83.7218 96.6492
RightUpLeg  9.18286 1.01558 -11.6763
RightLeg  41.316 1.19835 0.835482
RightFoot  -11.2146 0.058345 14.3758
RightToes  -2.9104e-010 0 -3.6325e-017
Spine  5.3152 3.90292 1.60394
Spine1  4.62312 6.05585 -11.1777
HEad  -14.6676 -37.4375 18.3023
LeftShoulder1  -0.162129 3.89489 -35.0975
LeftArm  -4.56047 12.191 -33.204
LeftForeArm  32.9119 -2.16644 -8.0443
LeftHand  -0.13025 10.1194 -1.80229
RightShoulder  0.590381 -1.35424 21.0957
RightArm  45.0711 36.4033 87.8276
RightForeArm  163.602 74.711 143.896
RightHand  -0.995906 17.573 -5.46508
LeftUpLeg  -15.7038 8.22004 -7.93269
LeftLeg  23.368 -0.330451 0.201798
LeftFoot  -1.22692 -0.524811 6.00359
LeftToes  -3.37426e-010 -1.91496e-010 5.23909e-011
220
root  -27.4522 38.5668 0.481205 -105.169 -83.029 98.4399
RightUpLeg  2.47018 1.34852 -12.9373
RightLeg  51.7445 1.36798 1.52271
RightFoot  -1.35381 -0.688785 7.02756
RightToes  -2.9104e-010 0 -3.6325e-017
Spine  5.63224 3.66391 0.591688
Spine1  4.03467 5.71352 -11.3169
HEad  -15.9421 -41.2878 21.8156
LeftShoulder1  0.179084 3.03744 -32.8593
LeftArm  -4.94471 12.5396 -36.1574
LeftForeArm  34.3156 -3.11762 -7.97896
LeftHand  -0.141236 8.84625 -2.91033
RightShoulder  0.518535 -1.53209 20.0989
RightArm  51.0206 40.2616 88.8579
RightForeArm  165.961 73.6621 146.634
RightHand  -0.818787 16.6378 -4.75912
LeftUpLeg  -13.744 9.30613 -8.90977
LeftLeg  22.5238 -0.911903 -0.123607
LeftFoot  -3.02669 -0.401552 5.77526
LeftToes  -3.37426e-010 -1.91496e-010 5.23909e-011
221
root  -28.4191 38.738 0.836895 -106.938 -82.7387 100.169
RightUpLeg  -2.75124 1.59044 -13.7326
RightLeg  57.9502 2.0383 3.05335
RightFoot  -2.14156 -0.645997 7.84153
RightToes  -2.9104e-010 0 -3.6325e-017
Spine  6.60488 3.36295 -0.298675
Spine1  3.62398 5.14788 -11.2599
HEad  -17.0962 -44.3356 24.3347
LeftShoulder1  0.505328 2.13415 -30.6495
LeftArm  -4.93015 12.7389 -39.3097
LeftForeArm  35.4601 -5.30276 -8.22254
LeftHand  -0.151685 9.08834 -2.99134
RightShoulder  0.382095 -1.93056 18.0796
RightArm  51.962 42.4509 85.8906
RightForeArm  170.443 72.7807 149.044
RightHand  -0.933336 16.6649 -5.3293
LeftUpLeg  -11.5445 9.4473 -9.29606
LeftLeg  21.7185 -0.550692 -0.376209
LeftFoot  -4.41696 -0.327742 5.8601
LeftToes  -3.37426e-010 -1.91496e-010 5.23909e-011
222
root  -29.422 38.9455 1.19693 -103.502 -83.4012 96.717
RightUpLeg  -7.29941 0.697456 -13.5053
RightLeg  60.159 2.32092 3.87817
RightFoot  -2.66363 -0.658389 8.41651
RightToes  -2.9104e-010 0 -3.6325e-017
Spine  7.12417 2.49492 -1.69854
Spine1  3.31772 3.58905 -8.90922
HEad  -17.1583 -45.9089 25.3493
LeftShoulder1  0.531037 2.04121 -30.2062
LeftArm  -3.46691 12.8433 -41.0902
LeftForeArm  34.6027 -9.27466 -8.2257
LeftHand  -0.0907149 8.47794 -1.61721
RightShoulder  0.325229 -2.03411 15.645
RightArm  47.282 42.2356 76.7079
RightForeArm  176.883 72.4289 150.684
RightHand  -0.455488 16.5801 -2.87201
LeftUpLeg  -9.21318 8.23537 -8.86298
LeftLeg  20.7222 0.212235 -0.70556
LeftFoot  -5.73338 -0.259118 5.97936
LeftToes  -3.37426e-010 -1.91496e-010 5.23909e-011
223
root  -30.4441 39.1581 1.50358 -92.8788 -84.039 86.2845
RightUpLeg  -11.1804 -0.602434 -12.926
RightLeg  58.7551 1.88651 2.92107
RightFoot  -3.47227 -0.551975 7.65744
RightToes  -2.9104e-010 0 -3.6325e-017
Spine  7.16932 1.47953 -4.31646
Spine1  3.2657 1.66151 -5.12079
HEad  -15.8631 -46.4164 24.8631
LeftShoulder1  0.49022 2.13064 -29.596
LeftArm  1.25607 13.017 -43.099
LeftForeArm  29.6028 -14.616 -6.86996
LeftHand  -0.0666912 7.96494 -0.879087
RightShoulder  0.217713 -2.48164 14.8826
RightArm  38.4756 40.5321 61.0635
RightForeArm  170.997 74.2064 146.536
RightHand  -0.694011 17.9576 -3.89515
LeftUpLeg  -6.82636 6.75507 -8.49585
LeftLeg  19.2054 0.651777 -1.11991
LeftFoot  -6.91176 -0.177796 5.67183
LeftToes  -3.37426e-010 -1.91496e-010 5.23909e-011
224
root  -31.467 39.3606 1.79655 -76.8559 -84.5879 70.3004
RightUpLeg  -13.786 -1.58988 -11.817
RightLeg  53.8589 1.09519 1.22678
RightFoot  -4.51038 -0.449172 7.0202
RightToes  -2.9104e-010 0 -3.6325e-017
Spine  7.75565 0.480903 -6.66676
Spine1  2.68964 -0.271161 -1.15057
HEad  -16.1214 -45.8601 25.1047
LeftShoulder1  0.38989 2.40549 -29.4006
LeftArm  6.71781 13.4555 -44.0237
LeftForeArm  23.2845 -20.8809 -4.61693
LeftHand  -0.0320545 6.26146 0.0850202
RightShoulder  0.0845282 -3.08322 14.2671
RightArm  29.1918 34.477 44.5794
RightForeArm  142.218 79.6061 118.225
RightHand  -1.12888 17.6948 -6.13103
LeftUpLeg  -4.15061 5.64541 -7.88759
LeftLeg  17.422 0.198724 -1.60855
LeftFoot  -7.94584 -0.117821 5.59595
LeftToes  -3.37426e-010 -1.91496e-010 5.23909e-011
225
root  -32.5404 39.5215 2.07401 -56.2617 -84.3808 49.6165
RightUpLeg  -14.8478 -2.20127 -10.7761
RightLeg  45.8792 0.306817 0.0446366
RightFoot  -5.22265 -0.426279 7.29687
RightToes  -2.9104e-010 0 -3.6325e-017
Spine  7.92573 -0.639464 -7.92616
Spine1  2.82909 -1.86695 1.07803
HEad  -13.7576 -45.2681 24.2328
LeftShoulder1  0.411814 2.31542 -28.5009
LeftArm  5.63182 13.9067 -44.0071
LeftForeArm  24.2243 -27.0437 -4.37343
LeftHand  -0.0329628 5.93016 -0.0699422
RightShoulder  -0.132739 -4.10383 14.3092
RightArm  21.7327 26.3316 33.957
RightForeArm  63.4855 74.5072 37.9778
RightHand  -1.11692 13.1334 -7.39013
LeftUpLeg  -1.34404 5.24114 -7.35063
LeftLeg  15.7569 -1.34171 -1.98071
LeftFoot  -8.96642 -0.0635604 5.6496
LeftToes  -3.37426e-010 -1.91496e-010 5.23909e-011
226
root  -33.6347 39.6754 2.31183 -37.97 -83.485 31.4402
RightUpLeg  -15.0407 -2.44885 -9.66126
RightLeg  35.4762 -0.796165 -0.858303
RightFoot  -4.78854 -0.43195 6.96833
RightToes  -2.9104e-010 0 -3.6325e-017
Spine  7.06666 -1.64577 -9.27479
Spine1  4.09804 -3.35396 3.64301
HEad  -11.592 -44.4717 23.1098
LeftShoulder1  0.345734 2.50866 -28.7209
LeftArm  2.64965 13.3588 -42.819
LeftForeArm  27.1166 -32.6442 -5.65892
LeftHand  -0.0288565 5.34419 0.665522
RightShoulder  -0.258923 -4.67425 14.8904
RightArm  11.193 22.5826 29.7184
RightForeArm  40.8621 47.2884 9.19698
RightHand  -0.279202 1.38257 -4.52781
LeftUpLeg  1.43268 5.35249 -6.59416
LeftLeg  13.7734 -3.57827 -2.29997
LeftFoot  -9.76583 -0.0179813 5.61985
LeftToes  -3.37426e-010 -1.91496e-010 5.23909e-011
227
root  -34.7551 39.7741 2.50091 -28.6083 -82.8546 22.1398
RightUpLeg  -14.4276 -1.82906 -8.59216
RightLeg  23.4727 -1.75249 -1.02278
RightFoot  -4.08939 -0.457426 6.77088
RightToes  -2.9104e-010 0 -3.6325e-017
Spine  7.10948 -1.43541 -10.5361
Spine1  4.08734 -3.8232 7.16307
HEad  -9.52678 -44.4738 20.8526
LeftShoulder1  0.207056 2.92939 -29.8469
LeftArm  2.57169 11.5483 -41.7492
LeftForeArm  27.7159 -36.2913 -6.55851
LeftHand  -0.0341357 4.81896 1.83068
RightShoulder  -0.354613 -4.96096 16.7847
RightArm  -10.4263 23.2368 25.8256
RightForeArm  37.0335 15.0978 -0.848412
RightHand  -0.0268963 -5.36953 -2.38602
LeftUpLeg  4.239 6.0965 -5.56414
LeftLeg  11.928 -5.57297 -2.65785
LeftFoot  -10.5816 0.0231587 6.03561
LeftToes  -3.37426e-010 -1.91496e-010 5.23909e-011
228
root  -35.8879 39.7763 2.66598 -25.7226 -82.1601 19.7418
RightUpLeg  -14.0058 -2.90763 -7.77015
RightLeg  11.6179 -1.3222 -0.828895
RightFoot  -3.5955 -0.489431 6.85291
RightToes  -2.9104e-010 0 -3.6325e-017
Spine  8.05217 -0.42517 -9.97521
Spine1  2.22419 -2.81993 8.42927
HEad  -8.2495 -44.5043 18.0706
LeftShoulder1  0.210312 2.90767 -29.1365
LeftArm  3.58419 9.5191 -42.3353
LeftForeArm  27.7703 -37.9125 -7.0068
LeftHand  -0.0450127 4.17308 2.34562
RightShoulder  -0.686835 -6.08662 20.041
RightArm  -35.5354 17.553 18.0009
RightForeArm  13.7598 0.131797 -11.236
RightHand  -0.0492833 -3.42762 -3.44839
LeftUpLeg  6.40227 6.11157 -5.48239
LeftLeg  10.4192 -6.50141 -2.41925
LeftFoot  -11.5432 0.0804596 6.01072
LeftToes  -3.37426e-010 -1.91496e-010 5.23909e-011
